<svg xmlns="http://www.w3.org/2000/svg" width="16" height="16" id="location"><path fill="#e65050" d="M8 1.501A5.499 5.499 0 0 0 2.918 4.89a5.484 5.484 0 0 0 1.193 5.983l3.456 3.453a.61.61 0 0 0 .864 0l3.457-3.453A5.483 5.483 0 0 0 13.08 4.89 5.499 5.499 0 0 0 8 1.501zm.017 3.008a2.506 2.506 0 1 1 .003 5.013 2.506 2.506 0 0 1-.003-5.013z"></path><path style="line-height:normal;text-indent:0;text-align:start;text-decoration-line:none;text-decoration-style:solid;text-decoration-color:#000;text-transform:none;block-progression:tb;white-space:normal;isolation:auto;mix-blend-mode:normal;solid-color:#000;solid-opacity:1" d="M8 1037.361a6.004 6.004 0 0 0-5.543 3.7 5.987 5.987 0 0 0 1.3 6.529l3.458 3.451a1.12 1.12 0 0 0 1.57 0l3.457-3.451a.5.5 0 0 0 .09-.121 5.974 5.974 0 0 0 1.211-6.409A6.004 6.004 0 0 0 8 1037.361Zm0 1.002a4.997 4.997 0 0 1 4.62 3.08 4.98 4.98 0 0 1-1.085 5.438l-3.457 3.451c-.049.049-.107.049-.156 0l-3.457-3.451a4.98 4.98 0 0 1-1.084-5.438 4.997 4.997 0 0 1 4.619-3.08z" color="#000" font-family="sans-serif" font-weight="400" overflow="visible" transform="translate(0 -1036.362)"></path><path style="line-height:normal;text-indent:0;text-align:start;text-decoration-line:none;text-decoration-style:solid;text-decoration-color:#000;text-transform:none;block-progression:tb;white-space:normal;isolation:auto;mix-blend-mode:normal;solid-color:#000;solid-opacity:1" d="M8.018 1040.371a3.014 3.014 0 0 0-3.008 3.006 3.016 3.016 0 0 0 3.008 3.008 3.016 3.016 0 0 0 3.007-3.008 3.014 3.014 0 0 0-3.007-3.006zm0 1c1.114 0 2.005.893 2.005 2.006a1.998 1.998 0 0 1-2.005 2.006 1.998 1.998 0 0 1-2.006-2.006c0-1.113.891-2.006 2.006-2.006z" color="#000" font-family="sans-serif" font-weight="400" overflow="visible" transform="translate(0 -1036.362)"></path></svg>